# xmcd
#
# Track frame offsets: 
#        150
#        10561
#        23760
#        35733
#        48483
#        58950
#        71177
#        80702
#        90330
#        99705
#        111325
#        120850
#
# Disc length: 1739 seconds
#
# Revision: 0
# Processed by: cddbd v1.5.2PL0 Copyright (c) Steve Scherf et al.
# Submitted via: ExactAudioCopy v1.1
#
DISCID=9b06c90c
DTITLE=The Flares - Encore Of Foot Stompin' Hits
DYEAR=1963
DGENRE=Soul
TTITLE0=Foot Stompin'
TTITLE1=The Stroll
TTITLE2=Dong The Watusi
TTITLE3=Fish And Twist
TTITLE4=The Pony
TTITLE5=Jump And Bump
TTITLE6=Truck And Trailer
TTITLE7=Huckle-Buck
TTITLE8=Doing The Hully Gully
TTITLE9=The Twist
TTITLE10=Shake, Shimmy And Stroll
TTITLE11=Sock Hop
EXTD=
EXTT0=
EXTT1=
EXTT2=
EXTT3=
EXTT4=
EXTT5=
EXTT6=
EXTT7=
EXTT8=
EXTT9=
EXTT10=
EXTT11=
PLAYORDER=
